<?xml version="1.0" encoding="UTF-8" standalone="no"?>
<!-- Created with Inkscape (http://www.inkscape.org/) -->

<svg
   width="300"
   height="300"
   viewBox="0 0 300 300"
   version="1.1"
   id="svg1"
   inkscape:version="1.4 (86a8ad7, 2024-10-11)"
   sodipodi:docname="dd.svg"
   xmlns:inkscape="http://www.inkscape.org/namespaces/inkscape"
   xmlns:sodipodi="http://sodipodi.sourceforge.net/DTD/sodipodi-0.dtd"
   xmlns="http://www.w3.org/2000/svg"
   xmlns:svg="http://www.w3.org/2000/svg">
  <sodipodi:namedview
     id="namedview1"
     pagecolor="#ffffff"
     bordercolor="#000000"
     borderopacity="0.25"
     inkscape:showpageshadow="2"
     inkscape:pageopacity="0.0"
     inkscape:pagecheckerboard="0"
     inkscape:deskcolor="#d1d1d1"
     inkscape:document-units="px"
     inkscape:zoom="3.9166667"
     inkscape:cx="108.89362"
     inkscape:cy="166.34043"
     inkscape:window-width="2560"
     inkscape:window-height="1377"
     inkscape:window-x="-8"
     inkscape:window-y="32"
     inkscape:window-maximized="1"
     inkscape:current-layer="layer1" />
  <defs
     id="defs1" />
  <g
     inkscape:label="Layer 1"
     inkscape:groupmode="layer"
     id="layer1">
    <ellipse
       style="fill:#aa0000"
       id="path1"
       cx="62.170212"
       cy="133.14894"
       rx="60.638298"
       ry="61.148937" />
    <path
       style="fill:#aa0000"
       id="path2"
       d="m 73.465494,76.679125 c 2.814776,-0.804373 5.740799,-1.0528 8.646781,-1.278033 5.721987,-0.406459 11.459238,-0.263154 17.184088,-0.02318 8.082227,0.500548 16.108777,1.579894 24.120157,2.722821 4.67257,0.738261 9.35525,1.512487 13.93809,2.705198 2.60778,0.678692 3.7824,1.101807 6.33969,1.932119 4.02205,1.463571 7.95376,3.157772 11.9728,4.628867 3.12342,1.143269 2.95409,1.055743 6.13873,2.090852 5.35173,1.598984 10.80223,2.903442 16.3063,3.861408 1.11012,0.193214 2.22515,0.357065 3.33773,0.535598 6.10489,0.936692 12.25835,1.501026 18.42874,1.727162 4.986,0.184696 9.97058,-0.122685 14.94296,-0.466481 2.52354,-0.165991 2.55121,-0.124764 5.14986,-0.482734 0.98706,-0.135969 1.97964,-0.24888 2.95385,-0.457864 1.18005,-0.253139 2.33665,-0.605703 3.5001,-0.92661 2.69907,-0.744469 4.73839,-1.368917 7.41985,-2.169795 4.12596,-1.268162 8.2231,-2.621168 12.36465,-3.838396 0,0 -11.5322,-7.823638 -11.5322,-7.823638 v 0 c -3.91729,1.477854 -7.8644,2.871664 -11.85891,4.128616 -2.54781,0.756758 -4.82185,1.483324 -7.42407,2.049048 -3.9332,0.855081 -7.93958,1.147863 -11.94802,1.374707 -4.92016,0.330386 -9.8484,0.544221 -14.78105,0.40906 -6.04971,-0.181968 -12.0839,-0.703412 -18.06107,-1.677042 -1.10444,-0.187462 -2.2115,-0.360126 -3.31332,-0.562385 -5.48519,-1.0069 -10.9149,-2.350518 -16.23273,-4.028738 -3.10753,-1.055699 -3.09036,-1.023086 -6.14157,-2.165008 -3.99749,-1.49607 -7.92567,-3.176773 -11.97508,-4.533074 -2.7436,-0.843021 -3.58403,-1.146919 -6.38016,-1.8225 -4.55261,-1.099969 -9.18798,-1.819469 -13.82209,-2.470438 -8.05922,-1.062808 -16.132467,-2.078424 -24.241331,-2.676274 -1.276588,-0.0849 -2.552057,-0.188774 -3.829766,-0.254706 -4.682401,-0.241619 -9.37622,-0.25279 -14.059024,-0.0228 -3.139896,0.193363 -6.261285,0.517907 -9.371522,0.994017 z" />
    <path
       style="fill:#aa0000"
       id="path3"
       d="m 65.772136,199.65572 c 3.940608,1.4372 8.141339,1.92149 12.273508,2.47789 7.61883,0.91087 15.289439,1.35706 22.963146,1.31346 1.83829,-0.0104 3.67567,-0.0848 5.51351,-0.12717 5.24081,-0.26725 10.51328,-0.63174 15.66433,-1.70008 1.91319,-0.3968 3.79797,-0.92054 5.69033,-1.40707 5.46254,-1.40443 7.02601,-1.88604 12.50254,-3.44092 2.13175,-0.60426 4.26293,-1.21051 6.39524,-1.81279 5.12704,-1.44815 7.52446,-2.14422 12.67037,-3.47248 5.9512,-1.53613 11.93558,-2.89307 17.94171,-4.19304 8.16017,-1.72414 16.4462,-2.91206 24.78248,-3.30197 1.40667,-0.0658 2.81543,-0.0746 4.22315,-0.11197 5.64447,-0.0516 11.26139,0.67056 16.77394,1.84792 3.53535,0.75508 5.69096,1.37414 9.20054,2.30537 1.54193,0.4144 3.08334,0.83072 4.62577,1.2432 3.79199,1.01406 5.00291,1.36374 8.79557,2.23117 3.97614,0.9094 7.98119,1.66194 11.99249,2.39511 3.13961,0.58744 6.30556,1.00911 9.47082,1.4273 0,0 -11.11942,-8.28191 -11.11942,-8.28191 v 0 c -3.02169,-0.31807 -6.0397,-0.67042 -9.03376,-1.19792 -3.92538,-0.67973 -7.83396,-1.40405 -11.72002,-2.28668 -3.42495,-0.7779 -5.22057,-1.25796 -8.64093,-2.15413 -1.53187,-0.40136 -3.06192,-0.80957 -4.59288,-1.21436 -2.8154,-0.74069 -6.59777,-1.77459 -9.45248,-2.37148 -2.58809,-0.54114 -6.00635,-1.04401 -8.63333,-1.31844 -1.45476,-0.15197 -2.91259,-0.29089 -4.3741,-0.34949 -1.32964,-0.0533 -2.66141,0.009 -3.99211,0.0141 -1.38851,0.0719 -2.77867,0.11687 -4.16551,0.21575 -8.20789,0.58524 -16.34213,1.95273 -24.34842,3.83262 -4.91641,1.15647 -6.67105,1.54609 -11.61675,2.80539 -6.27644,1.59816 -12.50639,3.35485 -18.73807,5.11705 -2.13117,0.60265 -4.26311,1.20255 -6.39466,1.80383 -4.8363,1.29582 -7.83795,2.16795 -12.71863,3.21024 -7.03813,1.50303 -14.19058,2.52062 -21.386717,2.78574 -1.82982,0.0276 -3.659475,0.096 -5.489451,0.0828 -4.229321,-0.0305 -6.683552,-0.20911 -10.881682,-0.54905 -4.265805,-0.34542 -8.524201,-0.80371 -12.751514,-1.47833 -4.450183,-0.78489 -9.007905,-1.53807 -13.078342,-3.60647 z" />
    <path
       style="fill:#aa6f00;fill-opacity:1"
       id="path29"
       d="m 94.017165,76.931171 c 7.050055,4.352782 14.312385,8.353094 21.512255,12.452481 -18.835165,-10.914888 -9.33523,-5.631582 -5.48302,-2.7026 1.33409,1.014363 2.6024,2.091685 3.81292,3.250786 0.58691,0.561985 1.14032,1.157954 1.71048,1.736932 2.99164,3.228729 5.54789,6.861964 7.48945,10.81748 0.44056,0.89754 0.8163,1.82548 1.22444,2.73822 1.88613,4.45342 3.00494,9.16196 3.98803,13.88001 0.65283,3.5812 1.07517,7.19949 1.47336,10.8163 0.40499,3.14955 0.52672,6.32231 0.61536,9.49323 0.16528,3.22533 -0.42863,6.38282 -1.1604,9.50421 -0.7001,2.8961 -1.77028,5.6675 -3.04359,8.35392 -1.17855,2.4688 -2.72108,4.74248 -4.37559,6.91306 -1.72346,2.25277 -3.63279,4.35183 -5.39537,6.57266 -1.13935,1.35594 -2.1368,2.82154 -3.26417,4.18684 -0.53203,0.64431 -1.07883,1.27635 -1.61115,1.92042 -1.2896,1.47183 -2.56713,2.95413 -3.92428,4.36434 -0.86114,1.0042 -1.85519,1.8816 -2.74602,2.85688 -3.39722,5.37534 9.47187,6.85849 12.83197,8.54127 0.18243,0.0914 0.37603,-0.15863 0.5661,-0.23279 0.42572,-0.16611 1.25713,-0.46425 1.65563,-0.6088 2.82086,-1.12658 5.65373,-2.21705 8.55216,-3.12793 3.7211,-1.17228 7.54651,-1.96124 11.38295,-2.6439 2.89155,-0.58785 5.8345,-0.8204 8.74745,-1.25924 0,0 -11.98326,-8.40613 -11.98326,-8.40613 v 0 c -2.81174,0.5229 -5.64963,0.90379 -8.4476,1.50528 -3.87161,0.7719 -7.73548,1.64104 -11.52306,2.75569 -2.95593,0.94257 -5.86393,2.02933 -8.83873,2.91217 -0.47952,0.11912 -1.22831,0.32913 -1.74653,0.37833 -0.16759,0.0159 -0.33654,-0.009 -0.50481,-0.0142 4.22715,2.41389 8.4543,4.82779 12.68145,7.24168 0.2407,0.15758 -0.46501,1.01205 -0.58593,0.63372 0.76221,-1.03722 1.75869,-1.87953 2.57515,-2.87272 1.30331,-1.48092 2.50561,-3.04774 3.7878,-4.54704 1.63912,-2.03067 3.25548,-4.07583 4.83188,-6.15594 1.77124,-2.22557 3.62951,-4.37957 5.40152,-6.60458 1.71382,-2.25644 3.31293,-4.61666 4.52081,-7.18818 0.41093,-0.89901 0.82677,-1.78251 1.19664,-2.69992 0.78084,-1.93677 1.37927,-3.94376 1.92477,-5.95727 0.72237,-3.22007 1.40067,-6.49054 1.37196,-9.80599 -0.0915,-3.21413 -0.29307,-6.42469 -0.61741,-9.62412 -0.40033,-3.6916 -1.03636,-7.34954 -1.61021,-11.01705 -0.1259,-0.68945 -0.22777,-1.38372 -0.3777,-2.06834 -0.22963,-1.04853 -0.86284,-3.2746 -1.15574,-4.25982 -0.80306,-2.70116 -1.68251,-5.38175 -2.71417,-8.00511 -0.72957,-1.75378 -1.52088,-3.76846 -2.40593,-5.45668 -0.41638,-0.79424 -0.89849,-1.55246 -1.36672,-2.31727 -1.32991,-2.17227 -2.79426,-4.243766 -4.5107,-6.132334 -0.56506,-0.606765 -1.11195,-1.230971 -1.69518,-1.820294 -1.14575,-1.157733 -2.50972,-2.382926 -3.7771,-3.404277 -5.5866,-4.502123 -12.35607,-7.455845 -18.34222,-11.232717 -0.73119,-0.421469 -1.46257,-0.84259 -2.19356,-1.264408 -0.67321,-0.38848 -2.692533,-1.554455 -2.01903,-1.166486 3.48562,2.007864 6.96915,4.019342 10.45536,6.026174 0.79519,0.457751 -1.58718,-0.921769 -2.36407,-1.409943 -0.21387,-0.134393 -0.42434,-0.274131 -0.63651,-0.411196 z" />
    <path
       style="fill:#aa6f00;fill-opacity:1"
       id="path30"
       d="m 143.72686,159.88051 c -0.0244,2.3618 -0.35529,4.70692 -0.59352,7.05365 -0.0978,1.33172 -0.25284,2.67262 -0.1732,4.01028 0.0218,0.36536 0.10926,1.00445 0.15757,1.38117 0.068,0.60144 0.1733,1.19455 0.32306,1.78054 0,0 13.46206,6.47971 13.46206,6.47971 v 0 c -0.1238,-0.5962 -0.35967,-1.15418 -0.4637,-1.75528 -0.14568,-0.67531 -0.33689,-1.37599 -0.40799,-2.06349 -0.10651,-1.02997 -0.0331,-2.08211 0.0175,-3.11155 0.16292,-2.29149 0.41349,-4.57868 0.86833,-6.8326 z" />
    <path
       style="fill:#aa6f00;fill-opacity:1"
       id="path31"
       d="m 148.06199,142.69331 c -0.1688,1.75497 -0.63881,3.46793 -1.00879,5.18895 0,0 12.99655,6.93146 12.99655,6.93146 v 0 c 0.28383,-1.73715 0.65234,-3.46783 1.21291,-5.1385 z" />
    <path
       style="fill:#aa6f00;fill-opacity:1"
       id="path32"
       d="m 158.0548,112.6129 c 1.42008,3.72519 2.07904,7.69495 2.8315,11.5953 1.00576,5.28212 1.77297,10.60218 2.45526,15.93413 0.51081,3.53343 0.77388,7.09506 1.22658,10.63506 0.36307,2.32052 0.81606,4.62572 1.2134,6.9407 0.22181,1.42661 0.4106,2.86412 0.41081,4.30997 -0.0381,0.3325 0.0293,0.20784 -0.13892,0.40181 4.49664,2.15493 8.9388,4.42745 13.48993,6.46479 0.13465,0.0603 -0.0339,-0.29372 -0.0342,-0.44125 -9.1e-4,-0.57487 0.0574,-0.73601 0.1618,-1.33089 0.29513,-1.12121 0.69258,-2.23121 1.29161,-3.22961 0.37001,-0.61669 0.60523,-0.87739 1.0468,-1.43462 0.89465,-1.15747 2.01846,-2.03782 3.32775,-2.67155 1.02713,-0.3396 2.10623,-0.65304 3.20003,-0.6537 0.24938,-1.5e-4 0.49703,0.0416 0.74555,0.0624 0.27969,0.0374 0.56263,0.0555 0.83906,0.11217 0.53197,0.10901 1.56776,0.45086 2.03856,0.61479 1.31782,0.45886 2.56555,1.03532 3.82693,1.62816 4.55957,2.2908 11.59212,6.43467 -9.01185,-5.28473 -0.3152,-0.17928 0.61962,0.37743 0.91968,0.58103 0.6825,0.46313 0.81389,0.60197 1.42042,1.11881 1.15037,1.03154 1.96774,2.33749 2.63278,3.71679 0.36921,0.8472 0.60857,1.74576 0.42404,2.66483 -0.43497,1.09567 -1.43553,1.75762 -2.36411,2.40501 -1.32245,0.86422 -2.74236,1.56126 -4.25086,2.02771 -2.19485,0.62057 -4.49364,0.92027 -6.77463,0.93897 -0.57966,0.005 -1.15905,-0.0266 -1.73857,-0.0399 -1.92297,-0.0726 -3.83666,-0.28115 -5.75019,-0.47299 0,0 11.44707,8.47795 11.44707,8.47795 v 0 c 1.95003,0.1623 3.89962,0.34617 5.85618,0.41094 0.61632,0.002 1.23289,0.0224 1.84896,0.005 2.45817,-0.0697 4.91808,-0.43445 7.29007,-1.07724 1.59468,-0.60632 3.14312,-1.34346 4.5314,-2.34601 1.19749,-0.86767 2.37205,-1.82913 2.98555,-3.21456 0.064,-0.19988 0.14464,-0.39518 0.192,-0.59964 0.22752,-0.98219 0.0582,-2.0366 -0.23102,-2.98297 -0.58402,-1.56739 -1.45564,-3.01299 -2.49479,-4.32178 -0.70949,-0.73954 -1.46409,-1.53444 -2.35667,-2.05905 -5.23832,-3.07878 -10.36252,-6.43129 -15.91125,-8.93843 -2.32329,-0.99506 -4.7325,-2.02696 -7.30276,-2.02782 -1.53657,0.12202 -3.05539,0.408 -4.41684,1.17126 -1.40828,0.87859 -2.58028,1.89457 -3.56245,3.24819 -0.39669,0.54974 -0.77687,1.05562 -1.13099,1.63661 -0.67282,1.10388 -1.14739,2.30099 -1.54972,3.52553 -0.20992,0.69134 -0.25978,0.81212 -0.41687,1.48071 -0.0364,0.15482 -0.23539,0.39045 -0.0962,0.46731 4.4233,2.44174 9.00616,4.58298 13.48408,6.92305 0.04,0.0209 -0.0958,0.0973 -0.12134,0.0601 -0.0622,-0.0907 -0.0399,-0.2162 -0.0598,-0.3243 -0.13563,-1.53599 -0.20336,-3.08098 -0.53986,-4.59241 -0.44228,-2.33402 -0.88002,-4.66836 -1.38866,-6.98882 -0.66519,-3.57927 -0.97657,-7.20932 -1.59213,-10.7972 -0.87348,-5.35318 -1.77112,-10.7023 -2.60288,-16.06217 -0.64695,-3.75647 -1.23094,-7.52223 -1.80383,-11.29053 z" />
    <path
       style="fill:#aa6f00;fill-opacity:1"
       id="path33"
       d="m 200.33741,152.4896 c 1.79733,3.34831 3.25126,6.87403 4.65164,10.40344 0.92139,2.14929 1.55114,4.42307 2.64939,6.49227 0.77874,1.45479 1.92777,2.70744 2.63938,4.19751 4.43835,2.34045 8.7236,4.9977 13.31506,7.02135 0.32299,0.14236 0.38716,-0.59718 0.50951,-0.92827 0.16763,-0.45363 0.17216,-1.36361 0.18258,-1.81506 0.0438,-1.89754 -0.0557,-0.50581 0.14567,-2.52077 0.43157,-2.30449 1.5772,-4.36327 3.36142,-5.90302 1.13151,-0.97647 1.96552,-1.34662 3.2665,-2.064 2.33014,-1.00069 1.17254,-0.54566 3.46971,-1.37297 0,0 -11.86938,-7.95783 -11.86938,-7.95783 v 0 c -2.28289,0.98717 -1.11683,0.45493 -3.49409,1.60569 -1.46443,0.87871 -2.22518,1.23715 -3.5006,2.39814 -1.49191,1.35806 -2.71167,3.0847 -3.506,4.93842 -0.21918,0.51149 -0.35239,1.05567 -0.52859,1.5835 -0.0969,0.46881 -0.2146,0.9338 -0.29062,1.40645 -0.007,0.0414 -0.17476,1.70686 -0.1981,1.91952 -0.0144,0.13158 -0.16783,0.33655 -0.0486,0.39413 0.11402,0.0551 0.0994,-0.37349 0.21185,-0.31529 4.35319,2.25277 8.58789,4.7275 12.88183,7.09125 -0.14183,-0.0184 -0.3001,0.0136 -0.4255,-0.0552 -0.31372,-0.17206 -0.83963,-0.8955 -1.00583,-1.12264 -0.59387,-0.81164 -1.10183,-1.68 -1.67581,-2.5051 -1.26203,-2.07319 -2.2265,-4.29328 -3.17486,-6.52475 -1.41269,-3.38626 -2.93864,-6.73514 -4.0746,-10.22803 z" />
    <path
       style="fill:#aa6f00;fill-opacity:1"
       id="path34"
       d="m 232.58648,158.91281 c 0.20463,1.90709 0.42176,3.81325 0.81042,5.69377 0.32569,1.57586 0.53752,2.25322 0.96098,3.79811 0.85613,2.6001 1.89898,5.16089 3.40964,7.45335 3.36599,4.4974 7.69675,4.96871 14.07867,8.26796 0.21288,0.11005 0.47473,-0.0669 0.71044,-0.11017 0.6459,-0.11847 0.83267,-0.18066 1.46848,-0.34812 1.65548,-0.55217 3.1981,-1.3764 4.711,-2.23416 1.89003,-1.33455 2.79002,-3.10629 3.71218,-5.16363 1.03583,-2.3925 1.35976,-4.98971 1.8034,-7.53514 0,0 -12.80907,-6.74201 -12.80907,-6.74201 v 0 c -0.22684,2.44017 -0.58885,4.88443 -1.64792,7.12316 -0.17351,0.3625 -0.33007,0.73362 -0.52054,1.08752 -0.69208,1.28594 -1.64857,2.42472 -2.90271,3.18836 -1.40317,0.7993 -2.86601,1.53824 -4.47518,1.80818 -0.47557,0.0521 -0.81912,0.12352 -1.29745,0.0446 -0.18659,-0.0308 -0.70501,-0.26325 -0.54213,-0.16716 4.07324,2.40313 8.20751,4.70162 12.28601,7.09582 0.14909,0.0875 -0.33729,-0.0893 -0.48965,-0.171 -0.18528,-0.0994 -0.34211,-0.24449 -0.51317,-0.36673 -0.19371,-0.19231 -0.40068,-0.37213 -0.58114,-0.57692 -1.65282,-1.87574 -2.61224,-4.26359 -3.54015,-6.54717 -0.39176,-1.30712 -0.72062,-2.29256 -0.98914,-3.63185 -0.34163,-1.70391 -0.48237,-3.45902 -0.34785,-5.1926 z" />
    <path
       style="fill:#aa6f00;fill-opacity:1"
       id="path35"
       d="m 259.41635,156.48018 c 3.29568,2.84379 6.20274,6.08706 9.10399,9.32144 2.0533,2.31273 4.01819,4.70092 5.98041,7.09055 0,0 12.74312,5.40163 12.74312,5.40163 v 0 c -2.09128,-2.39499 -4.17151,-4.79942 -6.23422,-7.21911 -2.54347,-3.00198 -4.99425,-6.10421 -7.79117,-8.87748 z" />
    <path
       style="fill:#aa6f00;fill-opacity:1"
       id="path36"
       d="m 279.50154,156.39258 c -2.67762,4.51892 -6.01169,8.59086 -9.35461,12.62425 -2.02744,2.51361 -4.15744,4.94073 -6.29094,7.36385 0,0 11.88768,7.11171 11.88768,7.11171 v 0 c 1.8978,-2.57517 3.83601,-5.11952 5.92445,-7.54542 2.24033,-2.58702 4.48301,-5.17168 6.74104,-7.74329 0.8938,-1.01793 2.01657,-2.32189 2.98383,-3.32004 0.27591,-0.28472 0.57274,-0.54839 0.85911,-0.82259 z" />
    <circle
       id="path37"
       style="fill:#aa6f00;stroke:#000000"
       cx="-61.021278"
       cy="126.89362"
       r="0.12853517" />
    <circle
       id="path38"
       style="fill:#aa6f00;stroke:#000000"
       cx="-53.361702"
       cy="170.04256"
       r="0.12853517" />
  </g>
</svg>
